<svg width="160" height="34" viewBox="0 0 160 34" fill="none" xmlns="http://www.w3.org/2000/svg">
<path d="M29.0735 8.43298L20.6484 10.6905L25.5743 29.0739L33.9994 26.8164L29.0735 8.43298Z" fill="#0096B8"/>
<path d="M23.3131 20.6487L4.92969 25.5746L7.18718 33.9997L25.5706 29.0738L23.3131 20.6487Z" fill="#306B9C"/>
<path d="M26.8131 -0.00439453L8.42969 4.92143L10.6872 13.3465L29.0706 8.42069L26.8131 -0.00439453Z" fill="#DFAE75"/>
<path d="M8.43035 4.927L0 7.18591L4.92582 25.5693L13.3562 23.3104L8.43035 4.927Z" fill="#E4605B"/>
<path d="M108.989 13.5708H107.151V8.99963H105.078V20.3239H107.151V15.8891H108.989V13.5708Z" fill="#EAEAEA"/>
<path d="M102.928 9.44702H100.866V12.1908H96.3822V9.44702H94.3203V19.7512H102.928V9.44702ZM100.866 14.4436V17.4874H96.3822V14.4436H100.866Z" fill="#EAEAEA"/>
<path d="M97.6611 27.8845V26.6517H107.174V24.5243H97.6611V23.3024H107.174V21.186H95.5938V30.0719H107.387V27.8845H97.6611Z" fill="#EAEAEA"/>
<path d="M122.94 9.22375V15.355H121.32V9.22375H119.258V23.0463H113.59V12.1039H117.442V9.7747H111.523V25.3973H119.258V30.6667H121.32V17.6787H122.94V30.6667H124.996V9.22375H122.94Z" fill="#EAEAEA"/>
<path d="M153.779 26.7988V16.2055H151.717V26.7988H149.715V16.2055H147.653V26.7988H144.828V29.128H159.108V26.7988H153.779Z" fill="#EAEAEA"/>
<path d="M158.054 9.77402H146.015V12.1087H155.992V24.813H158.054V9.77402Z" fill="#EAEAEA"/>
<path d="M76.7734 17.2198C76.7734 14.2524 78.5899 12.305 81.2846 12.305C83.9793 12.305 85.7957 14.2524 85.7957 17.2198C85.7957 20.1872 83.9684 22.1291 81.2846 22.1291C78.6008 22.1291 76.7734 20.1763 76.7734 17.2198ZM81.2846 19.9308C82.7792 19.9308 83.7829 18.8399 83.7829 17.1816C83.7829 15.5233 82.7738 14.4324 81.2846 14.4324C79.7954 14.4324 78.7863 15.5124 78.7863 17.1816C78.7863 18.8508 79.7954 19.9308 81.2846 19.9308Z" fill="#EAEAEA"/>
<path d="M80.1432 27.7427V22.7897H78.0703V30.0664H90.3383V27.7427H80.1432Z" fill="#EAEAEA"/>
<path d="M91.7948 15.0003H89.9838V8.96722H87.9219V23.5644H89.9838V17.3295H91.7948V15.0003Z" fill="#EAEAEA"/>
<path d="M82.3271 10.1668V8.55219H80.2651V10.1668H76.7031V12.3869H85.9655V10.1668H82.3271Z" fill="#EAEAEA"/>
<path d="M128.789 17.2198C128.789 14.2524 130.611 12.305 133.3 12.305C135.989 12.305 137.811 14.2524 137.811 17.2198C137.811 20.1872 135.984 22.1291 133.3 22.1291C130.616 22.1291 128.789 20.1763 128.789 17.2198ZM133.3 19.9308C134.794 19.9308 135.798 18.8399 135.798 17.1816C135.798 15.5233 134.789 14.4324 133.3 14.4324C131.811 14.4324 130.802 15.5124 130.802 17.1816C130.802 18.8508 131.811 19.9308 133.3 19.9308Z" fill="#EAEAEA"/>
<path d="M134.35 10.1668V8.55219H132.288V10.1668H128.726V12.3869H137.994V10.1668H134.35Z" fill="#EAEAEA"/>
<path d="M143.753 14.0678H141.757V8.97302H139.695V22.5719H141.757V16.397H143.753V14.0678Z" fill="#EAEAEA"/>
<path d="M129.125 23.5318V25.8665H139.702V30.6613H141.763V23.5318H129.125Z" fill="#EAEAEA"/>
<path d="M69.6293 20.3301V18.0936H62.0361V16.0862H69.0674V9.76407H59.9688V12.0115H67.0109V13.8443H59.9688V20.3301H69.6293Z" fill="#EAEAEA"/>
<path d="M73.4057 8.99963H71.3438V20.7493H73.4057V8.99963Z" fill="#EAEAEA"/>
<path d="M71.3406 23.2203H62.9784V21.4093H60.9219V30.0716H73.408V21.4093H71.3406V23.2203ZM71.3406 25.5386V27.7424H62.9784V25.5386H71.3406Z" fill="#EAEAEA"/>
<path d="M56.3515 18.8237V16.4782H55.5278V9.11411H42.6544V11.4652H53.4604V16.4782H42.2344V18.8237H48.1747V22.2057H42.3544V24.5459H53.6404V30.0662H55.7024V22.2057H50.2312V18.8237H56.3515Z" fill="#EAEAEA"/>
</svg>
